# xmcd
#
# Track frame offsets: 
#        150
#        16034
#        37691
#        57370
#        78254
#        101465
#        119352
#        137639
#        160654
#        180439
#        200948
#        220482
#        240684
#        262298
#        282530
#        303290
#        324971
#
# Disc length: 4612 seconds
#
# Revision: 0
# Processed by: cddbd v1.4PL0 Copyright (c) Steve Scherf et al.
# Submitted via: ExactAudioCopy v0.95a3
#
DISCID=ea120211
DTITLE=Various Artist - 再见男人心 A
DYEAR=2002
DGENRE=Other
TTITLE0=阿杜-他一定很爱你
TTITLE1=范逸臣-I BELIEVE
TTITLE2=李圣杰-痴心绝对
TTITLE3=任贤齐-一个人
TTITLE4=齐秦-呼唤
TTITLE5=祝钒刚-舍不得当情人
TTITLE6=郑中基-玫瑰眼泪
TTITLE7=游鸿明-恋上另一个人
TTITLE8=杨坤-无所谓
TTITLE9=张信哲-从开始到现在
TTITLE10=刘德华-练习
TTITLE11=许绍洋-幸福的瞬间
TTITLE12=张智成-没有你
TTITLE13=周杰伦-暗号
TTITLE14=永邦-你是我最深爱的人
TTITLE15=周华健-有没有一首歌会让你想起我
TTITLE16=羽泉-心似狂潮
EXTD=
EXTT0=
EXTT1=
EXTT2=
EXTT3=
EXTT4=
EXTT5=
EXTT6=
EXTT7=
EXTT8=
EXTT9=
EXTT10=
EXTT11=
EXTT12=
EXTT13=
EXTT14=
EXTT15=
EXTT16=
PLAYORDER=
